<svg xmlns="http://www.w3.org/2000/svg" width="560" height="760" viewBox="0 0 560 760"><defs><linearGradient id="bg" x1="0" y1="0" x2="1" y2="1"><stop stop-color="#08151d"/><stop offset=".48" stop-color="#071d2a"/><stop offset="1" stop-color="#050608"/></linearGradient><linearGradient id="neon" x1="0" y1="0" x2="1" y2="1"><stop stop-color="#42fff2"/><stop offset=".55" stop-color="#38b7ff"/><stop offset="1" stop-color="#a46bff"/></linearGradient><filter id="glow"><feGaussianBlur stdDeviation="6" result="b"/><feMerge><feMergeNode in="b"/><feMergeNode in="SourceGraphic"/></feMerge></filter></defs><rect width="560" height="760" rx="42" fill="url(#bg)"/><rect x="28" y="28" width="504" height="704" rx="32" fill="none" stroke="#18e8ff" stroke-opacity=".35" stroke-width="3"/><path d="M95 530c120-62 227 59 370-30M102 198c97 54 205-51 356 6" fill="none" stroke="url(#neon)" stroke-opacity=".42" stroke-width="3"/><g filter="url(#glow)"><text x="280" y="184" text-anchor="middle" font-family="Arial Black,Arial,sans-serif" font-size="70" fill="#dffeff">AI</text><text x="280" y="260" text-anchor="middle" font-family="Arial Black,Arial,sans-serif" font-size="54" fill="url(#neon)">UNLOCKED</text></g><g transform="translate(280 414)" stroke="url(#neon)" stroke-width="6" fill="none" filter="url(#glow)"><circle r="104" opacity=".85"/><path d="M0-104v208M-104 0h208M-74-74l148 148M74-74L-74 74" opacity=".35"/><path d="M-46-18c-45-68 74-96 49-5 59-45 105 73 14 55 38 80-101 91-49 7-82 31-101-73-14-57z"/><circle r="12" fill="#40fff4"/></g><text x="280" y="640" text-anchor="middle" font-family="Inter,Arial,sans-serif" font-size="22" fill="#c6ecff" letter-spacing="4">SERGIO FERNANDES</text></svg>