<svg xmlns="http://www.w3.org/2000/svg" width="560" height="760" viewBox="0 0 560 760"><defs><radialGradient id="r" cx="50%" cy="39%" r="70%"><stop stop-color="#302314"/><stop offset=".45" stop-color="#120b08"/><stop offset="1" stop-color="#050304"/></radialGradient><linearGradient id="gold" x1="0" y1="0" x2="1" y2="1"><stop stop-color="#ffe88a"/><stop offset=".5" stop-color="#f6a51c"/><stop offset="1" stop-color="#ff42b5"/></linearGradient><filter id="glow"><feGaussianBlur stdDeviation="5" result="b"/><feMerge><feMergeNode in="b"/><feMergeNode in="SourceGraphic"/></feMerge></filter></defs><rect width="560" height="760" rx="42" fill="url(#r)"/><rect x="28" y="28" width="504" height="704" rx="32" fill="none" stroke="#ffbf3d" stroke-opacity=".42" stroke-width="3"/><g transform="translate(280 384)" filter="url(#glow)"><path d="M-118-70c35-116 201-117 236 0 21 71-24 166-118 196C-94 96-139 1-118-70z" fill="#130d0d" stroke="url(#gold)" stroke-width="8"/><path d="M-76-20c45-32 65-29 96 7 37-39 71-45 102-12" fill="none" stroke="#ffe88a" stroke-width="8" stroke-linecap="round" opacity=".72"/><path d="M-48 52c35 24 67 26 104 0" fill="none" stroke="#ff42b5" stroke-width="7" stroke-linecap="round"/><circle cx="-50" cy="6" r="13" fill="#ffe88a"/><circle cx="55" cy="6" r="13" fill="#ffe88a"/></g><text x="280" y="140" text-anchor="middle" font-family="Arial Black,Arial,sans-serif" font-size="40" fill="url(#gold)" filter="url(#glow)">CONTROVERSIAL</text><text x="280" y="195" text-anchor="middle" font-family="Arial Black,Arial,sans-serif" font-size="46" fill="url(#gold)" filter="url(#glow)">CHARACTERS</text><path d="M110 602h340" stroke="url(#gold)" stroke-width="4" opacity=".6"/><text x="280" y="656" text-anchor="middle" font-family="Inter,Arial,sans-serif" font-size="22" fill="#ffeec4" letter-spacing="4">SERGIO FERNANDES</text></svg>