<svg xmlns="http://www.w3.org/2000/svg" width="1200" height="420" viewBox="0 0 1200 420"><defs><linearGradient id="v" x1="0" y1="0" x2="1" y2="1"><stop stop-color="#27ff75"/><stop offset=".35" stop-color="#18e7ff"/><stop offset=".7" stop-color="#b45cff"/><stop offset="1" stop-color="#ffbf3d"/></linearGradient><filter id="g"><feGaussianBlur stdDeviation="4" result="b"/><feMerge><feMergeNode in="b"/><feMergeNode in="SourceGraphic"/></feMerge></filter></defs><g fill="none" stroke="url(#v)" stroke-opacity=".38" stroke-width="2" filter="url(#g)"><path d="M3 310C195 148 325 364 519 167S925 49 1194 170"/><path d="M0 202c143-72 258 62 386-28C522 78 618 86 731 139c146 69 270-89 465-23"/><path d="M96 376c73-102 171-113 295-31 107 71 247 61 374-27 116-81 247-61 357 36"/></g><g fill="url(#v)" opacity=".6"><ellipse cx="158" cy="262" rx="7" ry="22" transform="rotate(38 158 262)"/><ellipse cx="382" cy="186" rx="7" ry="24" transform="rotate(-28 382 186)"/><ellipse cx="694" cy="105" rx="8" ry="25" transform="rotate(42 694 105)"/><ellipse cx="930" cy="141" rx="6" ry="21" transform="rotate(-38 930 141)"/><ellipse cx="1082" cy="294" rx="8" ry="24" transform="rotate(20 1082 294)"/></g></svg>